<svg id="Layer_1" data-name="Layer 1" xmlns="http://www.w3.org/2000/svg" viewBox="0 0 59.76 34.96"><defs><style>.cls-1,.cls-2{fill:#e04b4b;}.cls-2{opacity:0.11;}.cls-3{font-size:28px;fill:#fff;font-family:BradleyHandITCTT-Bold, Bradley Hand;font-weight:700;letter-spacing:0.11em;}</style></defs><title>1st</title><line class="cls-1" x1="1" y1="28.17" x2="54.5" y2="28.17"/><path class="cls-2" d="M123.06,214.45c17.76.16,35.53-.17,53.28.15a.9.9,0,0,0-.45-.47c-.46-.33-.93-.65-1.4-1s-1.18-.77-1.78-1.14a6.38,6.38,0,0,0-1.27-.72,73,73,0,0,0-7.54-.25c-6.36,0-12.71,0-19.07,0-5.86,0-11.7.12-17.56-.08-2.91-.1-5.82-.23-8.74-.35a.9.9,0,0,0,.38.52c.58.53,1.17,1,1.77,1.55C121.11,213,122.35,214.44,123.06,214.45Z" transform="translate(-118.33 -183.17)"/><path class="cls-2" d="M123.66,215.48c17.77.14,35.54-.15,53.31.12a1,1,0,0,0-.46-.53c-.67-.53-1.35-1.06-2-1.56s-1.85-1.69-2.73-1.78a64.22,64.22,0,0,0-7.34-.25c-6.36,0-12.72,0-19.07,0-5.86,0-11.71.12-17.57-.07-2.9-.09-5.81-.22-8.72-.34a1,1,0,0,0,.38.57c.59.61,1.19,1.2,1.8,1.78C121.59,213.76,123,215.47,123.66,215.48Z" transform="translate(-118.33 -183.17)"/><path class="cls-2" d="M124.39,215.14c17.75-.38,35.51-.17,53.26-.17.52,0-.19-.68-.43-.68-17.71,0-35.45-.34-53.15.25C123.6,214.55,124.15,215.15,124.39,215.14Z" transform="translate(-118.33 -183.17)"/><path class="cls-2" d="M124.1,217.81c17.82.05,35.63,0,53.45,0,.34,0-.66-1.44-1-1.44-17.79,0-35.57.09-53.35-.06C122.83,216.32,123.77,217.81,124.1,217.81Z" transform="translate(-118.33 -183.17)"/><path class="cls-2" d="M123.31,215.73c17.77.11,35.54-.13,53.3.1a1.28,1.28,0,0,0-.5-.61c-.73-.65-1.47-1.28-2.22-1.91-.6-.5-2-2.12-2.95-2.22a59.4,59.4,0,0,0-7.31-.26c-6.35,0-12.71-.05-19.07,0-5.85,0-11.69.14-17.53-.08-2.89-.11-5.77-.25-8.65-.38a1.26,1.26,0,0,0,.4.67c.63.73,1.27,1.45,1.92,2.15C121,213.51,122.6,215.72,123.31,215.73Z" transform="translate(-118.33 -183.17)"/><path class="cls-2" d="M123.24,214.83c17.76.14,35.53-.15,53.28.13a1.05,1.05,0,0,0-.49-.53c-.71-.53-1.43-1.05-2.16-1.55s-1.94-1.67-2.86-1.76a66.69,66.69,0,0,0-7.35-.25c-6.35,0-12.71-.05-19.07,0-5.85,0-11.7.13-17.55-.08-2.9-.11-5.81-.25-8.71-.37a1,1,0,0,0,.41.57c.63.61,1.26,1.2,1.92,1.78C121.07,213.13,122.5,214.82,123.24,214.83Z" transform="translate(-118.33 -183.17)"/><path class="cls-2" d="M123.63,216.64c17.74,0,35.49-.24,53.22.07,0,0-.94-1-1.1-1.16-.45-.39-1.3-1.44-1.93-1.5-2.06-.19-4-.24-6.1-.23-6.15,0-12.3,0-18.45,0-9.4,0-18.79,0-28.19-.26a16.21,16.21,0,0,0,1.13,1.66C122.43,215.48,123.15,216.64,123.63,216.64Z" transform="translate(-118.33 -183.17)"/><path class="cls-2" d="M124.62,215.62H178c.26,0-.76-1-1.12-1-17.78,0-35.56,0-53.33,0C123.3,214.57,124.27,215.62,124.62,215.62Z" transform="translate(-118.33 -183.17)"/><path class="cls-2" d="M123.73,216.65c17.75.1,35.52-.18,53.27.1a.87.87,0,0,0-.4-.54c-.6-.56-1.21-1.11-1.83-1.64s-1.67-1.8-2.48-1.89a56.56,56.56,0,0,0-7.25-.28c-6.35,0-12.71,0-19.06,0-5.86,0-11.71.12-17.56,0-2.87-.09-5.74-.23-8.61-.35,0,0,1.82,2.46,1.81,2.46C121.88,214.74,123.12,216.64,123.73,216.65Z" transform="translate(-118.33 -183.17)"/><path class="cls-2" d="M123.18,215.24c17.76.13,35.53-.15,53.29.12a1.18,1.18,0,0,0-.49-.57c-.71-.59-1.43-1.16-2.16-1.72s-2-1.89-2.88-2a63.8,63.8,0,0,0-7.32-.26c-6.36.05-12.71,0-19.07,0-5.85,0-11.69.14-17.54-.08-2.89-.11-5.79-.25-8.68-.38a1.16,1.16,0,0,0,.4.62c.62.67,1.25,1.32,1.89,2C121,213.28,122.47,215.23,123.18,215.24Z" transform="translate(-118.33 -183.17)"/><path class="cls-2" d="M123.93,216.23c17.76.1,35.52-.19,53.27.1a.84.84,0,0,0-.38-.49c-.58-.48-1.18-1-1.78-1.42s-1.6-1.52-2.39-1.61a61,61,0,0,0-7.28-.27c-6.36,0-12.71,0-19.07,0-8.76,0-17.48,0-26.23-.37,0,0,1.79,2.16,1.79,2.17C122.17,214.64,123.32,216.22,123.93,216.23Z" transform="translate(-118.33 -183.17)"/><path class="cls-2" d="M124.43,218.11q26.74,0,53.48,0c.35,0-.61-1.44-.95-1.44-17.82,0-35.63,0-53.45,0C123.15,216.64,124.1,218.11,124.43,218.11Z" transform="translate(-118.33 -183.17)"/><text class="cls-3" transform="translate(3.33 21.6)">1st</text></svg>