<svg id="Layer_1" data-name="Layer 1" xmlns="http://www.w3.org/2000/svg" viewBox="0 0 66.12 41.87"><defs><style>.cls-1,.cls-2{fill:#e04b4b;}.cls-2{opacity:0.11;}.cls-3{font-size:28px;fill:#fff;font-family:BradleyHandITCTT-Bold, Bradley Hand;font-weight:700;letter-spacing:0.11em;}</style></defs><title>4st</title><line class="cls-1" x1="1.96" y1="28.17" x2="55.46" y2="28.17"/><path class="cls-2" d="M126.48,214.13c17.7.18,35.4,0,53.1.21a1.81,1.81,0,0,0-.89-1c-.9-.67-1.82-1.32-2.75-1.95-1.16-.8-2.32-1.59-3.5-2.36a14.47,14.47,0,0,0-2.52-1.48l-1.53-.16.36,0c-3.65-.38-7.38-.11-11.05-.14q-9.16-.09-18.31,0c-2.45,0-4.9,0-7.35,0s-5-.3-7.54-.47c-2.36-.17-4.71-.28-7.07-.41a1.7,1.7,0,0,0,.76,1q1.73,1.59,3.52,3.09t3.63,3A1.71,1.71,0,0,0,126.48,214.13Z" transform="translate(-117.01 -179.71)"/><path class="cls-2" d="M127.66,216.18c17.73.16,35.45,0,53.18.16a2,2,0,0,0-.9-1.06c-1.32-1.1-2.66-2.16-4-3.2S173.19,210,171.8,209a2,2,0,0,0-1.26-.6,58.59,58.59,0,0,0-7.26-.25c-6.35.05-12.71-.09-19.06,0-5.8.05-11.58.16-17.36-.28-2.81-.22-5.62-.36-8.43-.53a2,2,0,0,0,.77,1.14c1.17,1.21,2.36,2.4,3.59,3.56s2.44,2.32,3.7,3.43A2,2,0,0,0,127.66,216.18Z" transform="translate(-117.01 -179.71)"/><path class="cls-2" d="M129.61,215.85c9.19-1,18.44-.7,27.68-.7h24.84c1,0-.38-1.36-.85-1.36H152.62l-9.19,0c-2.68,0-5.47-.35-8.14-.12a58,58,0,0,0-6.07,1.16C128.48,215,129.12,215.91,129.61,215.85Z" transform="translate(-117.01 -179.71)"/><path class="cls-2" d="M128.7,221c17.73-.43,35.49-.18,53.23-.18.67,0-1.32-2.88-2-2.88H153.15c-8.71,0-17.41-.08-26.12.31C126.26,218.32,128.1,221.05,128.7,221Z" transform="translate(-117.01 -179.71)"/><path class="cls-2" d="M127,216.67c17.71.11,35.43,0,53.14.15a2.46,2.46,0,0,0-1-1.24q-2.13-2-4.35-3.9t-4.45-3.77a2.5,2.5,0,0,0-1.36-.79,54.56,54.56,0,0,0-7.23-.27c-6.35.05-12.7-.09-19.06,0-5.78.06-11.51.16-17.27-.35-2.77-.24-5.54-.39-8.32-.56a2.56,2.56,0,0,0,.82,1.33c1.25,1.45,2.53,2.89,3.84,4.3s2.61,2.82,4,4.2A2.38,2.38,0,0,0,127,216.67Z" transform="translate(-117.01 -179.71)"/><path class="cls-2" d="M126.83,214.88c17.7.14,35.41,0,53.11.18a2.17,2.17,0,0,0-1-1.07c-1.4-1.09-2.81-2.14-4.25-3.17s-2.87-2.06-4.34-3a2.11,2.11,0,0,0-1.32-.59,60.6,60.6,0,0,0-7.26-.24c-6.35,0-12.71-.09-19.06,0-5.8.06-11.55.15-17.33-.34-2.8-.24-5.61-.38-8.41-.55a2.07,2.07,0,0,0,.83,1.15c1.25,1.21,2.53,2.4,3.83,3.55s2.59,2.32,3.93,3.44A2.1,2.1,0,0,0,126.83,214.88Z" transform="translate(-117.01 -179.71)"/><path class="cls-2" d="M127.62,218.51c17.66-.06,35.34-.17,53,.06a1,1,0,0,0-.44-.8c-.54-.55-1.1-1.07-1.68-1.58s-1.42-1.29-2.15-1.91a7,7,0,0,0-1.61-1.19,56.25,56.25,0,0,0-6.1-.25c-6.14,0-12.28,0-18.43,0-6,0-12,.25-18,0l-9.71-.49a1,1,0,0,0,.31.84c.63.86,1.28,1.7,2,2.51C125.2,216.17,126.66,218.51,127.62,218.51Z" transform="translate(-117.01 -179.71)"/><path class="cls-2" d="M129.84,216.66c17.67-.54,35.38-.21,53.06-.21.67,0-.32-.89-.31-.88-.42-.4-1.29-1.18-1.93-1.18H153.91c-8.64,0-17.26-.12-25.89.37C127.36,214.8,129.23,216.68,129.84,216.66Z" transform="translate(-117.01 -179.71)"/><path class="cls-2" d="M127.81,218.52c17.7.08,35.4-.06,53.09.12a1.82,1.82,0,0,0-.76-1.09q-1.75-1.73-3.58-3.37c-1.2-1.1-2.43-2.19-3.68-3.24a1.8,1.8,0,0,0-1.16-.65,50.18,50.18,0,0,0-7.15-.28c-6.35.05-12.7-.09-19,0-5.79.05-11.56.18-17.34-.26-2.73-.2-5.48-.35-8.22-.52a1.85,1.85,0,0,0,.6,1.17c1,1.27,2,2.51,3,3.73s2.08,2.45,3.16,3.64A1.78,1.78,0,0,0,127.81,218.52Z" transform="translate(-117.01 -179.71)"/><path class="cls-2" d="M126.71,215.7c17.71.13,35.41,0,53.12.17a2.27,2.27,0,0,0-1-1.15c-1.39-1.21-2.81-2.38-4.25-3.53s-2.87-2.29-4.34-3.4a2.28,2.28,0,0,0-1.33-.68,56.33,56.33,0,0,0-7.24-.26c-6.35.05-12.7-.09-19.06,0-5.78.06-11.53.15-17.29-.35-2.78-.25-5.57-.39-8.35-.56a2.23,2.23,0,0,0,.8,1.23q1.84,2,3.78,3.92t3.88,3.81A2.27,2.27,0,0,0,126.71,215.7Z" transform="translate(-117.01 -179.71)"/><path class="cls-2" d="M128.22,217.69c17.69.08,35.4-.09,53.09.12a1.61,1.61,0,0,0-.75-1q-1.69-1.5-3.47-2.93c-1.17-1-2.36-1.9-3.57-2.8a1.63,1.63,0,0,0-1.13-.53,51.92,51.92,0,0,0-7.17-.27c-6.35.06-12.7-.08-19.05,0-5.81.05-11.59.18-17.39-.23-2.76-.19-5.53-.34-8.29-.5a1.61,1.61,0,0,0,.59,1.06q1.47,1.68,3,3.28t3.11,3.17A1.58,1.58,0,0,0,128.22,217.69Z" transform="translate(-117.01 -179.71)"/><path class="cls-2" d="M129.32,221.58c17.77-.34,35.56-.13,53.34-.13.7,0-1.23-2.88-1.91-2.88-17.7,0-35.45-.4-53.14.25C126.85,218.85,128.7,221.59,129.32,221.58Z" transform="translate(-117.01 -179.71)"/><text class="cls-3" transform="translate(2.85 21.6)">4st</text></svg>