<svg id="POSTER" xmlns="http://www.w3.org/2000/svg" xmlns:xlink="http://www.w3.org/1999/xlink" viewBox="0 0 612 1434"><defs><style>.cls-1{fill:url(#linear-gradient);}.cls-2{fill:#eaa2a2;}.cls-3{font-size:71px;font-family:Phosphate-Inline, Phosphate;}.cls-4{letter-spacing:-0.03em;}.cls-5{font-size:18px;letter-spacing:0.11em;}.cls-21,.cls-5,.cls-7{font-family:BradleyHandITCTT-Bold, Bradley Hand;}.cls-10,.cls-15,.cls-21,.cls-5,.cls-7{font-weight:700;}.cls-6{fill:#ef0c0c;}.cls-21,.cls-7{font-size:28px;}.cls-21,.cls-30,.cls-7{fill:#fff;}.cls-7{letter-spacing:0.11em;}.cls-22,.cls-8,.cls-9{fill:#e04b4b;}.cls-9{opacity:0.11;}.cls-10{font-size:19px;letter-spacing:0.11em;}.cls-10,.cls-11{fill:#544d4d;}.cls-10,.cls-15{font-family:Arial-BoldMT, Arial;}.cls-11,.cls-17,.cls-18,.cls-25{font-size:11px;}.cls-11,.cls-16,.cls-17,.cls-18,.cls-25{font-family:ArialMT, Arial;}.cls-11,.cls-25{letter-spacing:0.11em;}.cls-12,.cls-18{letter-spacing:0.09em;}.cls-13,.cls-17{letter-spacing:0.11em;}.cls-14{letter-spacing:0.03em;}.cls-15{font-size:15px;letter-spacing:0.11em;}.cls-16,.cls-17,.cls-18,.cls-25{font-weight:400;}.cls-19{fill:#f4eded;}.cls-20{letter-spacing:0.03em;}.cls-21{letter-spacing:0.11em;}.cls-22{opacity:0.11;}.cls-23{letter-spacing:0.05em;}.cls-24{letter-spacing:0.05em;}.cls-26{letter-spacing:0.11em;}.cls-27,.cls-29{stroke:#544d4d;}.cls-27,.cls-28,.cls-29,.cls-30,.cls-31{stroke-miterlimit:10;}.cls-28{stroke:#fff;}.cls-29,.cls-31{fill:none;}.cls-30,.cls-31{stroke:#000;}</style><linearGradient id="linear-gradient" x1="0.5" y1="809" x2="611.5" y2="809" gradientUnits="userSpaceOnUse"><stop offset="0" stop-color="#eaa2a2"/><stop offset="1" stop-color="#fff"/></linearGradient></defs><title>cunha_renata_poster</title><g id="MIDDLE_BCKGD" data-name="MIDDLE BCKGD"><rect class="cls-1" x="0.5" y="184.5" width="611" height="1249"/><path d="M611,185V1433H1V185H611m1-1H0V1434H612V184Z"/></g><g id="Head_bckgd" data-name="Head bckgd"><rect class="cls-2" x="0.5" y="0.5" width="611" height="163"/><path d="M611,1V163H1V1H611m1-1H0V164H612V0Z"/></g><text class="cls-3" transform="translate(167.89 75.69)">M<tspan class="cls-4" x="54.6" y="0">O</tspan><tspan x="105.01" y="0">THERN</tspan></text><text class="cls-5" transform="translate(140.98 140.55)">MANUAL FOR A MODERN MOTHER</text><g id="wipes"><circle class="cls-6" cx="115.5" cy="316.5" r="102.5"/><text class="cls-7" transform="translate(231.34 243.93)">1st</text><line class="cls-8" x1="229" y1="250.5" x2="282.5" y2="250.5"/><path class="cls-9" d="M232.74,253.61c17.76.17,35.52-.16,53.28.15a.9.9,0,0,0-.45-.47c-.46-.33-.93-.65-1.4-.95s-1.18-.78-1.78-1.15a7.56,7.56,0,0,0-1.27-.72c-2.53-.24-5-.26-7.54-.25-6.36,0-12.71,0-19.07,0-5.86,0-11.71.13-17.56-.08-2.91-.1-5.82-.23-8.74-.35a.86.86,0,0,0,.38.52c.58.53,1.17,1.05,1.77,1.55C230.79,252.2,232,253.61,232.74,253.61Z"/><path class="cls-9" d="M233.34,254.64c17.77.14,35.54-.14,53.31.12a1,1,0,0,0-.46-.53q-1-.79-2-1.56c-.64-.46-1.85-1.69-2.73-1.78a66.6,66.6,0,0,0-7.34-.25c-6.36,0-12.72,0-19.08,0-5.85,0-11.7.13-17.56-.06-2.91-.1-5.81-.23-8.72-.35a1,1,0,0,0,.38.58q.89.9,1.8,1.77C231.27,252.92,232.64,254.63,233.34,254.64Z"/><path class="cls-9" d="M234.07,254.3c17.74-.38,35.51-.17,53.26-.17.52,0-.19-.68-.43-.68-17.71,0-35.45-.33-53.16.25C233.28,253.71,233.83,254.31,234.07,254.3Z"/><path class="cls-9" d="M233.78,257c17.82,0,35.63,0,53.45,0,.34,0-.66-1.44-1-1.44-17.79,0-35.57.09-53.36-.06C232.5,255.49,233.45,257,233.78,257Z"/><path class="cls-9" d="M233,254.89c17.76.11,35.54-.13,53.3.1a1.35,1.35,0,0,0-.5-.61c-.73-.65-1.47-1.28-2.22-1.9-.6-.5-2-2.13-2.95-2.23a59.4,59.4,0,0,0-7.31-.26c-6.35,0-12.71-.05-19.07,0-5.85,0-11.69.14-17.53-.09-2.89-.11-5.77-.25-8.66-.37a1.28,1.28,0,0,0,.41.66q.94,1.1,1.92,2.16C230.71,252.68,232.28,254.88,233,254.89Z"/><path class="cls-9" d="M232.92,254c17.76.14,35.53-.15,53.28.13a1.09,1.09,0,0,0-.49-.53c-.71-.53-1.43-1-2.16-1.55s-1.94-1.66-2.86-1.76a64.32,64.32,0,0,0-7.35-.24c-6.36,0-12.71,0-19.07,0-5.85,0-11.7.14-17.55-.08-2.9-.11-5.81-.24-8.72-.37a1.06,1.06,0,0,0,.42.58c.63.6,1.26,1.2,1.91,1.78C230.75,252.29,232.18,254,232.92,254Z"/><path class="cls-9" d="M233.31,255.8c17.74,0,35.49-.23,53.22.08,0,0-.94-1-1.1-1.17-.45-.39-1.3-1.43-1.93-1.49a59,59,0,0,0-6.1-.24c-6.15,0-12.3,0-18.45,0-9.41,0-18.79,0-28.19-.26a15.3,15.3,0,0,0,1.13,1.67C232.11,254.65,232.83,255.8,233.31,255.8Z"/><path class="cls-9" d="M234.3,254.78h53.42c.26,0-.76-1-1.12-1-17.78,0-35.56,0-53.33,0C233,253.73,234,254.78,234.3,254.78Z"/><path class="cls-9" d="M233.41,255.81c17.75.1,35.52-.18,53.27.1a1,1,0,0,0-.4-.54c-.6-.56-1.21-1.11-1.83-1.64s-1.68-1.8-2.48-1.89a56.56,56.56,0,0,0-7.25-.27c-6.35,0-12.71,0-19.06,0-5.86,0-11.71.13-17.57,0-2.87-.09-5.74-.22-8.61-.34,0,0,1.83,2.45,1.82,2.45C231.56,253.91,232.8,255.81,233.41,255.81Z"/><path class="cls-9" d="M232.86,254.4c17.76.13,35.53-.14,53.28.12a1.05,1.05,0,0,0-.48-.56c-.71-.59-1.43-1.17-2.16-1.73s-2-1.89-2.88-2a61.68,61.68,0,0,0-7.32-.25c-6.36,0-12.72-.05-19.07,0-5.85,0-11.7.14-17.54-.08-2.9-.11-5.79-.25-8.68-.38a1.07,1.07,0,0,0,.4.62c.62.67,1.25,1.32,1.89,2C230.66,252.45,232.15,254.39,232.86,254.4Z"/><path class="cls-9" d="M233.61,255.39c17.76.11,35.52-.19,53.27.11a.84.84,0,0,0-.38-.49c-.58-.49-1.18-1-1.78-1.43s-1.6-1.52-2.39-1.61a59,59,0,0,0-7.28-.26c-6.36,0-12.72,0-19.07,0-8.76,0-17.48,0-26.23-.38,0,0,1.78,2.16,1.79,2.17C231.85,253.8,233,255.39,233.61,255.39Z"/><path class="cls-9" d="M234.11,257.27q26.75,0,53.48,0c.35,0-.61-1.43-.95-1.43-17.82,0-35.63.05-53.45,0C232.83,255.81,233.78,257.27,234.11,257.27Z"/><text id="NO_white_pants" data-name="NO white pants" class="cls-10" transform="translate(306.55 264.14)">NO high heels</text><text class="cls-11" transform="translate(363.09 299.66)">The feet are among the parts of <tspan x="-111.41" y="13.2">the body that su</tspan><tspan class="cls-12" x="-14.29" y="13.2">f</tspan><tspan class="cls-13" x="-10.26" y="13.2">fer the most from work accidents. </tspan><tspan x="-133.57" y="31.2">According to the INSS stud</tspan><tspan class="cls-14" x="29.11" y="31.2">y</tspan><tspan class="cls-13" x="34.97" y="31.2">, over </tspan><tspan class="cls-15" x="73.77" y="31.2">39,000</tspan><tspan class="cls-13" x="129.28" y="31.2" xml:space="preserve"> accidents </tspan><tspan x="-127.96" y="44.4">were recorded in the foot region, except for the toes. </tspan><tspan x="-58.81" y="57.6">This places this region of the body as the </tspan><tspan class="cls-15"><tspan x="-41.26" y="75.6">2nd</tspan><tspan class="cls-16" x="-9.77" y="75.6"> </tspan><tspan class="cls-17" x="-4" y="75.6">that su</tspan><tspan class="cls-18" x="37.26" y="75.6">f</tspan><tspan class="cls-17" x="41.29" y="75.6">fers most work accidents.</tspan></tspan></text><circle class="cls-19" cx="115" cy="316" r="94"/></g><g id="markers"><circle class="cls-6" cx="115.5" cy="1229.5" r="102.5"/><text class="cls-7" transform="translate(230.16 1156.93)">5st</text><line class="cls-8" x1="229" y1="1163.5" x2="282.5" y2="1163.5"/><path class="cls-9" d="M236.51,1169.75c17.7.18,35.4,0,53.09.21a1.75,1.75,0,0,0-.88-1c-.9-.67-1.82-1.32-2.75-2-1.16-.8-2.33-1.59-3.5-2.35a15.31,15.31,0,0,0-2.52-1.49l-1.53-.16.36,0c-3.65-.38-7.38-.1-11-.14q-9.17-.09-18.31,0c-2.45,0-4.9,0-7.36,0s-5-.3-7.54-.47c-2.35-.16-4.71-.28-7.06-.41a1.7,1.7,0,0,0,.76,1q1.72,1.59,3.52,3.09t3.63,3A1.71,1.71,0,0,0,236.51,1169.75Z"/><path class="cls-9" d="M237.69,1171.8c17.73.16,35.45,0,53.17.16a2,2,0,0,0-.89-1.06c-1.32-1.1-2.66-2.16-4-3.2s-2.73-2.08-4.12-3.07a2,2,0,0,0-1.27-.6,58.43,58.43,0,0,0-7.25-.25c-6.35,0-12.71-.08-19.06,0-5.81,0-11.58.16-17.37-.28-2.8-.22-5.61-.36-8.42-.53a2,2,0,0,0,.76,1.14c1.18,1.21,2.37,2.4,3.6,3.56s2.44,2.32,3.7,3.44A2,2,0,0,0,237.69,1171.8Z"/><path class="cls-9" d="M239.63,1171.48c9.2-1,18.45-.71,27.69-.71h24.84c1,0-.38-1.37-.85-1.37H262.65l-9.19,0c-2.68,0-5.47-.35-8.14-.12a57.46,57.46,0,0,0-6.07,1.16C238.51,1170.6,239.14,1171.53,239.63,1171.48Z"/><path class="cls-9" d="M238.73,1176.66c17.73-.43,35.49-.18,53.23-.18.67,0-1.32-2.88-2-2.88H263.18c-8.71,0-17.41-.08-26.12.31C236.29,1174,238.12,1176.67,238.73,1176.66Z"/><path class="cls-9" d="M237,1172.3c17.71.1,35.43,0,53.14.14a2.51,2.51,0,0,0-1-1.24q-2.13-2-4.35-3.9c-1.46-1.28-2.95-2.54-4.45-3.77a2.49,2.49,0,0,0-1.37-.79,54.34,54.34,0,0,0-7.22-.26c-6.35,0-12.71-.1-19.06,0-5.78.06-11.52.16-17.27-.35-2.77-.24-5.54-.38-8.32-.56a2.5,2.5,0,0,0,.82,1.33q1.88,2.19,3.84,4.3t4,4.2A2.52,2.52,0,0,0,237,1172.3Z"/><path class="cls-9" d="M236.86,1170.5c17.7.14,35.41,0,53.11.18a2.17,2.17,0,0,0-1-1.07c-1.4-1.08-2.81-2.14-4.25-3.17s-2.88-2.06-4.34-3a2.19,2.19,0,0,0-1.32-.59,60.6,60.6,0,0,0-7.26-.24c-6.35,0-12.71-.09-19.06,0-5.8.06-11.56.15-17.33-.34-2.8-.24-5.61-.38-8.41-.55a2.07,2.07,0,0,0,.83,1.15c1.25,1.21,2.52,2.4,3.82,3.55s2.6,2.32,3.94,3.44A2.1,2.1,0,0,0,236.86,1170.5Z"/><path class="cls-9" d="M237.65,1174.13c17.66-.06,35.34-.17,53,.06a1,1,0,0,0-.45-.8c-.53-.54-1.09-1.07-1.67-1.58s-1.42-1.29-2.15-1.91a6.88,6.88,0,0,0-1.61-1.18,51.59,51.59,0,0,0-6.1-.25c-6.14,0-12.28,0-18.43,0s-12,.26-18,0l-9.71-.49a1,1,0,0,0,.31.84c.63.86,1.28,1.7,2,2.51C235.23,1171.8,236.69,1174.14,237.65,1174.13Z"/><path class="cls-9" d="M239.86,1172.29c17.68-.55,35.39-.22,53.07-.22.67,0-.32-.89-.31-.88-.42-.4-1.3-1.18-1.93-1.18H263.94c-8.64,0-17.26-.12-25.89.37C237.39,1170.42,239.26,1172.3,239.86,1172.29Z"/><path class="cls-9" d="M237.84,1174.15c17.7.06,35.4-.07,53.09.11a1.85,1.85,0,0,0-.76-1.09q-1.76-1.73-3.58-3.36t-3.68-3.25a1.83,1.83,0,0,0-1.16-.65,50.18,50.18,0,0,0-7.15-.28c-6.35.06-12.7-.09-19.05,0-5.79.05-11.56.18-17.34-.25-2.74-.21-5.48-.36-8.22-.53a1.85,1.85,0,0,0,.6,1.17c1,1.27,2,2.51,3,3.73s2.08,2.45,3.16,3.64A1.84,1.84,0,0,0,237.84,1174.15Z"/><path class="cls-9" d="M236.74,1171.32c17.71.13,35.41,0,53.12.17a2.27,2.27,0,0,0-.95-1.15c-1.4-1.21-2.81-2.38-4.25-3.53s-2.87-2.29-4.34-3.4a2.28,2.28,0,0,0-1.33-.68,56.4,56.4,0,0,0-7.24-.26c-6.35,0-12.71-.09-19.06,0-5.78.06-11.53.15-17.29-.35-2.78-.25-5.57-.39-8.35-.56a2.23,2.23,0,0,0,.8,1.23q1.85,2,3.78,3.92t3.88,3.81A2.27,2.27,0,0,0,236.74,1171.32Z"/><path class="cls-9" d="M238.25,1173.31c17.69.08,35.4-.09,53.09.12a1.67,1.67,0,0,0-.75-1q-1.69-1.5-3.47-2.93c-1.17-1-2.36-1.9-3.57-2.8a1.65,1.65,0,0,0-1.13-.53,51.92,51.92,0,0,0-7.17-.27c-6.35.06-12.7-.08-19.05,0-5.81,0-11.6.19-17.39-.22-2.76-.2-5.53-.35-8.29-.51a1.61,1.61,0,0,0,.59,1.06q1.45,1.68,3,3.28t3.11,3.17A1.58,1.58,0,0,0,238.25,1173.31Z"/><path class="cls-9" d="M239.34,1177.2c17.78-.33,35.57-.13,53.35-.13.7,0-1.23-2.88-1.91-2.88-17.7,0-35.45-.4-53.15.25C236.87,1174.47,238.73,1177.21,239.34,1177.2Z"/><text id="NO_white_pants-2" data-name="NO white pants" class="cls-10" transform="translate(318.75 1177.14)">H<tspan class="cls-20" x="15.75" y="0">A</tspan><tspan x="30.1" y="0">VE wipes</tspan></text><text class="cls-11" transform="translate(295.17 1212.66)">Made especially for the skin care of babies,<tspan x="-29.84" y="13.2" xml:space="preserve"> some baby wipeshave a soft and delicate touch </tspan><tspan x="-67.17" y="31.2">as they have over </tspan><tspan class="cls-15" x="43.91" y="31.2">90% water</tspan><tspan class="cls-13" x="131.73" y="31.2" xml:space="preserve"> in their composition. </tspan><tspan x="43.68" y="44.4">In addition, they have no fragrance, </tspan><tspan x="-30.93" y="57.6">so as not to cause strangeness in the little ones.</tspan><tspan x="-67.48" y="70.8">Ideal for use as early as the baby&apos;s first months of life.</tspan></text><circle class="cls-19" cx="115" cy="1229" r="94"/></g><g id="pacifier"><circle class="cls-6" cx="115.5" cy="996.5" r="102.5"/><text class="cls-21" transform="translate(229.89 923.93)">4st</text><line class="cls-8" x1="229" y1="930.5" x2="282.5" y2="930.5"/><path class="cls-22" d="M236.51,936.75c17.7.18,35.4,0,53.09.21a1.75,1.75,0,0,0-.88-1c-.9-.67-1.82-1.32-2.75-2-1.16-.8-2.33-1.59-3.5-2.35a15.31,15.31,0,0,0-2.52-1.49l-1.53-.16.36,0c-3.65-.38-7.38-.1-11-.14q-9.17-.09-18.31,0c-2.45,0-4.9,0-7.36,0s-5-.3-7.54-.47c-2.35-.16-4.71-.28-7.06-.41a1.7,1.7,0,0,0,.76,1q1.72,1.59,3.52,3.09t3.63,3A1.71,1.71,0,0,0,236.51,936.75Z"/><path class="cls-22" d="M237.69,938.8c17.73.16,35.45,0,53.17.16a2,2,0,0,0-.89-1.06c-1.32-1.1-2.66-2.16-4-3.2s-2.73-2.08-4.12-3.07a2,2,0,0,0-1.27-.6,60.44,60.44,0,0,0-7.25-.25c-6.35.05-12.71-.08-19.06,0-5.81,0-11.58.17-17.37-.28-2.8-.22-5.61-.36-8.42-.53a2,2,0,0,0,.76,1.14c1.18,1.21,2.37,2.4,3.6,3.56s2.44,2.32,3.7,3.44A2,2,0,0,0,237.69,938.8Z"/><path class="cls-22" d="M239.63,938.48c9.2-1,18.45-.71,27.69-.71h24.84c1,0-.38-1.37-.85-1.37H262.65l-9.19,0c-2.68,0-5.47-.35-8.14-.12a57.46,57.46,0,0,0-6.07,1.16C238.51,937.6,239.14,938.53,239.63,938.48Z"/><path class="cls-22" d="M238.73,943.66c17.73-.42,35.49-.18,53.23-.18.67,0-1.32-2.88-2-2.88H263.18c-8.71,0-17.41-.08-26.12.31C236.29,941,238.12,943.67,238.73,943.66Z"/><path class="cls-22" d="M237,939.3c17.71.1,35.43,0,53.14.14a2.51,2.51,0,0,0-1-1.24q-2.13-2-4.35-3.9c-1.46-1.28-2.95-2.54-4.45-3.77a2.55,2.55,0,0,0-1.37-.79,54.34,54.34,0,0,0-7.22-.26c-6.35,0-12.71-.1-19.06,0-5.78.06-11.52.16-17.27-.35-2.77-.24-5.54-.38-8.32-.56a2.5,2.5,0,0,0,.82,1.33q1.88,2.19,3.84,4.3t4,4.2A2.52,2.52,0,0,0,237,939.3Z"/><path class="cls-22" d="M236.86,937.5c17.7.14,35.41,0,53.11.18a2.17,2.17,0,0,0-1-1.07c-1.4-1.08-2.81-2.14-4.25-3.17s-2.88-2.06-4.34-3a2.19,2.19,0,0,0-1.32-.59,60.6,60.6,0,0,0-7.26-.24c-6.35,0-12.71-.09-19.06,0-5.8.06-11.56.15-17.33-.34-2.8-.24-5.61-.37-8.41-.55a2.07,2.07,0,0,0,.83,1.15q1.88,1.82,3.82,3.56t3.94,3.43A2.1,2.1,0,0,0,236.86,937.5Z"/><path class="cls-22" d="M237.65,941.13c17.66-.06,35.34-.17,53,.06a1,1,0,0,0-.45-.8c-.53-.54-1.09-1.07-1.67-1.58s-1.42-1.29-2.15-1.91a6.88,6.88,0,0,0-1.61-1.18,51.59,51.59,0,0,0-6.1-.25c-6.14,0-12.28-.05-18.43,0s-12,.26-18,0l-9.71-.49a1,1,0,0,0,.31.84c.63.86,1.28,1.7,2,2.51C235.23,938.8,236.69,941.14,237.65,941.13Z"/><path class="cls-22" d="M239.86,939.29c17.68-.54,35.39-.22,53.07-.22.67,0-.32-.89-.31-.88-.42-.4-1.3-1.18-1.93-1.18H263.94c-8.64,0-17.26-.12-25.89.37C237.39,937.42,239.26,939.3,239.86,939.29Z"/><path class="cls-22" d="M237.84,941.14c17.7.08,35.4-.07,53.09.12a1.85,1.85,0,0,0-.76-1.09q-1.76-1.73-3.58-3.36t-3.68-3.25a1.83,1.83,0,0,0-1.16-.65,50.18,50.18,0,0,0-7.15-.28c-6.35.06-12.7-.09-19.05,0-5.79,0-11.56.18-17.34-.25-2.74-.21-5.48-.36-8.22-.53a1.85,1.85,0,0,0,.6,1.17c1,1.27,2,2.51,3,3.73s2.08,2.45,3.16,3.64A1.78,1.78,0,0,0,237.84,941.14Z"/><path class="cls-22" d="M236.74,938.32c17.71.13,35.41,0,53.12.17a2.27,2.27,0,0,0-.95-1.15c-1.4-1.21-2.81-2.38-4.25-3.53s-2.87-2.29-4.34-3.4a2.28,2.28,0,0,0-1.33-.68,56.4,56.4,0,0,0-7.24-.26c-6.35,0-12.71-.09-19.06,0-5.78.06-11.53.15-17.29-.35-2.78-.25-5.57-.39-8.35-.56a2.23,2.23,0,0,0,.8,1.23q1.85,2,3.78,3.92t3.88,3.81A2.27,2.27,0,0,0,236.74,938.32Z"/><path class="cls-22" d="M238.25,940.31c17.69.07,35.4-.1,53.09.12a1.67,1.67,0,0,0-.75-1q-1.69-1.5-3.47-2.93c-1.17-1-2.36-1.9-3.57-2.8a1.65,1.65,0,0,0-1.13-.53,51.92,51.92,0,0,0-7.17-.27c-6.35.06-12.7-.08-19.05,0-5.81,0-11.6.19-17.39-.22-2.76-.2-5.53-.35-8.29-.51a1.61,1.61,0,0,0,.59,1.06q1.45,1.68,3,3.28t3.11,3.17A1.58,1.58,0,0,0,238.25,940.31Z"/><path class="cls-22" d="M239.34,944.2c17.78-.33,35.57-.14,53.35-.13.7,0-1.23-2.87-1.91-2.87-17.7,0-35.46-.41-53.15.24C236.87,941.47,238.73,944.21,239.34,944.2Z"/><text id="NO_white_pants-3" data-name="NO white pants" class="cls-10" transform="translate(306.14 944.14)">H<tspan class="cls-20" x="15.75" y="0">A</tspan><tspan x="30.1" y="0">VE markers</tspan></text><text class="cls-11" transform="translate(268.51 979.66)">As the child draws, she develops various skills. <tspan x="80.71" y="13.2">Controlling a pencil or crayon in a </tspan><tspan x="-11.12" y="26.4">tweezing movement develops motor coordination. </tspan><tspan x="14.71" y="44.4">This happens from the </tspan><tspan class="cls-15" x="153.11" y="44.4">age of 3</tspan><tspan class="cls-13" x="222.63" y="44.4">, when the </tspan><tspan x="-42.63" y="57.6">child moves from doodling to more meaningful drawing.</tspan></text><circle class="cls-19" cx="115" cy="996" r="94"/></g><g id="No_white_pan" data-name="No white pan"><circle class="cls-6" cx="113.5" cy="769.5" r="102.5"/><text class="cls-7" transform="translate(228.24 696.93)">3st</text><line class="cls-8" x1="227" y1="703.5" x2="280.5" y2="703.5"/><path class="cls-9" d="M234.51,709.75c17.7.17,35.4,0,53.09.21a1.75,1.75,0,0,0-.88-1c-.9-.67-1.82-1.32-2.75-2-1.16-.8-2.33-1.59-3.5-2.35a15.31,15.31,0,0,0-2.52-1.49l-1.53-.16.36,0c-3.65-.38-7.38-.1-11-.14q-9.17-.09-18.31,0c-2.45,0-4.9,0-7.36,0s-5-.3-7.54-.47c-2.35-.16-4.71-.28-7.06-.41a1.7,1.7,0,0,0,.76,1q1.72,1.59,3.52,3.09t3.63,3A1.71,1.71,0,0,0,234.51,709.75Z"/><path class="cls-9" d="M235.69,711.8c17.73.16,35.45,0,53.17.16a2,2,0,0,0-.89-1.06c-1.32-1.1-2.66-2.16-4-3.2s-2.73-2.08-4.12-3.07a2,2,0,0,0-1.26-.6,58.66,58.66,0,0,0-7.26-.25c-6.35.05-12.71-.08-19.06,0-5.81,0-11.58.16-17.37-.28-2.8-.22-5.61-.36-8.42-.53a2,2,0,0,0,.76,1.14c1.18,1.21,2.37,2.4,3.6,3.56s2.44,2.32,3.7,3.44A2,2,0,0,0,235.69,711.8Z"/><path class="cls-9" d="M237.63,711.48c9.19-1,18.45-.71,27.69-.71h24.84c1,0-.38-1.37-.85-1.37H260.65l-9.19,0c-2.68,0-5.47-.35-8.14-.12a57.46,57.46,0,0,0-6.07,1.16C236.51,710.6,237.14,711.53,237.63,711.48Z"/><path class="cls-9" d="M236.73,716.66c17.73-.43,35.49-.19,53.23-.18.67,0-1.32-2.88-2-2.88H261.18c-8.71,0-17.41-.08-26.12.31C234.29,714,236.12,716.67,236.73,716.66Z"/><path class="cls-9" d="M235,712.3c17.71.1,35.43,0,53.14.14a2.51,2.51,0,0,0-1-1.24c-1.43-1.33-2.87-2.63-4.35-3.9s-2.95-2.54-4.45-3.77a2.49,2.49,0,0,0-1.37-.79,54.34,54.34,0,0,0-7.22-.26c-6.35,0-12.71-.1-19.06,0-5.78.06-11.52.16-17.27-.35-2.77-.24-5.54-.38-8.32-.56a2.5,2.5,0,0,0,.82,1.33q1.88,2.19,3.84,4.3t4,4.2A2.52,2.52,0,0,0,235,712.3Z"/><path class="cls-9" d="M234.86,710.5c17.7.14,35.41,0,53.11.18a2.17,2.17,0,0,0-1-1.07c-1.4-1.08-2.81-2.14-4.25-3.17s-2.88-2.06-4.34-3a2.19,2.19,0,0,0-1.32-.59,60.6,60.6,0,0,0-7.26-.24c-6.35,0-12.71-.09-19.06,0-5.8.06-11.56.15-17.33-.34-2.8-.24-5.61-.38-8.41-.55a2.07,2.07,0,0,0,.83,1.15c1.25,1.21,2.52,2.4,3.82,3.55s2.6,2.32,3.94,3.44A2.1,2.1,0,0,0,234.86,710.5Z"/><path class="cls-9" d="M235.65,714.13c17.66-.06,35.34-.18,53,.06a1,1,0,0,0-.45-.8c-.53-.54-1.09-1.07-1.67-1.58s-1.42-1.29-2.15-1.91a6.88,6.88,0,0,0-1.61-1.18,51.59,51.59,0,0,0-6.1-.25c-6.14,0-12.28-.05-18.43,0s-12,.26-18,0l-9.71-.49a1,1,0,0,0,.31.84c.63.86,1.28,1.7,2,2.51C233.23,711.8,234.69,714.14,235.65,714.13Z"/><path class="cls-9" d="M237.86,712.29c17.68-.55,35.39-.22,53.07-.22.67,0-.32-.89-.31-.88-.42-.4-1.3-1.18-1.93-1.18H261.94c-8.64,0-17.26-.12-25.89.37C235.39,710.42,237.26,712.3,237.86,712.29Z"/><path class="cls-9" d="M235.84,714.15c17.69.06,35.4-.08,53.09.11a1.85,1.85,0,0,0-.76-1.09q-1.76-1.73-3.58-3.36t-3.68-3.25a1.83,1.83,0,0,0-1.16-.65,50.18,50.18,0,0,0-7.15-.28c-6.35.06-12.7-.09-19.05,0-5.79,0-11.56.18-17.34-.25-2.74-.21-5.48-.36-8.22-.53a1.85,1.85,0,0,0,.6,1.17c1,1.27,2,2.51,3,3.73s2.08,2.45,3.16,3.64A1.84,1.84,0,0,0,235.84,714.15Z"/><path class="cls-9" d="M234.74,711.32c17.71.12,35.41,0,53.12.17a2.27,2.27,0,0,0-.95-1.15c-1.4-1.21-2.81-2.38-4.25-3.53s-2.87-2.29-4.34-3.4a2.28,2.28,0,0,0-1.33-.68,56.4,56.4,0,0,0-7.24-.26c-6.35,0-12.71-.09-19.06,0-5.78.06-11.53.15-17.29-.35-2.78-.25-5.57-.39-8.35-.56a2.23,2.23,0,0,0,.8,1.23q1.85,2,3.78,3.92t3.88,3.81A2.27,2.27,0,0,0,234.74,711.32Z"/><path class="cls-9" d="M236.25,713.31c17.69.07,35.4-.1,53.09.12a1.67,1.67,0,0,0-.75-1q-1.69-1.5-3.47-2.93c-1.17-1-2.36-1.9-3.57-2.8a1.65,1.65,0,0,0-1.13-.53,51.92,51.92,0,0,0-7.17-.27c-6.35.06-12.7-.08-19.05,0-5.81,0-11.6.19-17.39-.22-2.76-.2-5.53-.35-8.29-.51a1.61,1.61,0,0,0,.59,1.06q1.45,1.68,3,3.28t3.11,3.17A1.58,1.58,0,0,0,236.25,713.31Z"/><path class="cls-9" d="M237.34,717.2c17.78-.34,35.57-.14,53.35-.13.7,0-1.23-2.87-1.91-2.88-17.7,0-35.46-.4-53.15.25C234.87,714.47,236.73,717.21,237.34,717.2Z"/><text id="NO_white_pants-4" data-name="NO white pants" class="cls-10" transform="translate(296.35 717.14)">H<tspan class="cls-20" x="15.75" y="0">A</tspan><tspan x="30.1" y="0">VE a pacifier</tspan></text><text class="cls-11" transform="translate(271.86 752.66)"><tspan xml:space="preserve">An agreement with a recent  study released by </tspan><tspan x="-12.69" y="13.2">the</tspan><tspan class="cls-23" x="6.13" y="13.2"> </tspan><tspan x="9.76" y="13.2">American</tspan><tspan class="cls-24" x="65.64" y="13.2"> </tspan><tspan class="cls-13" x="69.26" y="13.2">Academy of Pediatrics, the pacifier </tspan><tspan x="134.11" y="26.4">use by children between </tspan><tspan class="cls-15"><tspan x="-9.91" y="44.4" xml:space="preserve">1 and  12 months of age</tspan><tspan class="cls-25" x="197.87" y="44.4">, may prevent </tspan></tspan><tspan x="134.15" y="57.6">the risk of sudden death.</tspan></text><circle class="cls-19" cx="113" cy="769" r="94"/></g><g id="No_high_heels" data-name="No high heels"><circle class="cls-6" cx="113.5" cy="541.5" r="102.5"/><text class="cls-21" transform="translate(227.98 468.93)">2st</text><line class="cls-8" x1="227" y1="475.5" x2="280.5" y2="475.5"/><path class="cls-9" d="M234.51,481.75c17.7.18,35.4,0,53.09.21a1.75,1.75,0,0,0-.88-1c-.9-.67-1.82-1.32-2.75-1.95-1.16-.8-2.33-1.59-3.5-2.35a15.31,15.31,0,0,0-2.52-1.49l-1.53-.16.36,0c-3.65-.38-7.38-.1-11-.14q-9.17-.09-18.31,0c-2.45,0-4.9,0-7.36,0s-5-.3-7.54-.47c-2.35-.16-4.71-.28-7.06-.41a1.7,1.7,0,0,0,.76,1q1.72,1.59,3.52,3.09t3.63,3A1.71,1.71,0,0,0,234.51,481.75Z"/><path class="cls-9" d="M235.69,483.8c17.73.16,35.45,0,53.17.16a2,2,0,0,0-.89-1.06c-1.32-1.1-2.66-2.16-4-3.2s-2.73-2.08-4.12-3.07a2,2,0,0,0-1.26-.6,58.66,58.66,0,0,0-7.26-.25c-6.35.05-12.71-.08-19.06,0-5.81.05-11.58.16-17.37-.28-2.8-.22-5.61-.36-8.42-.53a2,2,0,0,0,.76,1.14c1.18,1.21,2.37,2.4,3.6,3.56s2.44,2.32,3.7,3.44A2,2,0,0,0,235.69,483.8Z"/><path class="cls-9" d="M237.63,483.48c9.2-1,18.45-.71,27.69-.71h24.84c1,0-.38-1.37-.85-1.37H260.65l-9.19,0c-2.68,0-5.47-.35-8.14-.12a57.46,57.46,0,0,0-6.07,1.16C236.51,482.6,237.14,483.53,237.63,483.48Z"/><path class="cls-9" d="M236.73,488.66c17.73-.43,35.49-.18,53.23-.18.67,0-1.32-2.88-2-2.88H261.18c-8.71,0-17.41-.08-26.12.31C234.29,486,236.12,488.67,236.73,488.66Z"/><path class="cls-9" d="M235,484.3c17.71.1,35.43,0,53.14.14a2.51,2.51,0,0,0-1-1.24q-2.13-2-4.35-3.9c-1.46-1.28-2.95-2.54-4.45-3.77a2.49,2.49,0,0,0-1.37-.79,54.34,54.34,0,0,0-7.22-.26c-6.35,0-12.71-.1-19.06,0-5.78.06-11.52.16-17.27-.35-2.77-.24-5.54-.38-8.32-.56a2.5,2.5,0,0,0,.82,1.33q1.88,2.19,3.84,4.3t4,4.2A2.52,2.52,0,0,0,235,484.3Z"/><path class="cls-9" d="M234.86,482.5c17.7.14,35.41,0,53.11.18a2.17,2.17,0,0,0-1-1.07c-1.4-1.08-2.81-2.14-4.25-3.17s-2.88-2.06-4.34-3a2.19,2.19,0,0,0-1.32-.59,60.6,60.6,0,0,0-7.26-.24c-6.35.05-12.71-.09-19.06,0-5.8.06-11.56.15-17.33-.34-2.8-.24-5.61-.38-8.41-.55a2.07,2.07,0,0,0,.83,1.15c1.25,1.21,2.52,2.4,3.82,3.55s2.6,2.32,3.94,3.44A2.1,2.1,0,0,0,234.86,482.5Z"/><path class="cls-9" d="M235.65,486.13c17.66-.06,35.34-.17,53,.06a1,1,0,0,0-.45-.8c-.53-.54-1.09-1.07-1.67-1.58s-1.42-1.29-2.15-1.91a6.88,6.88,0,0,0-1.61-1.18,51.59,51.59,0,0,0-6.1-.25c-6.14,0-12.28-.05-18.43,0s-12,.26-18,0l-9.71-.49a1,1,0,0,0,.31.84c.63.86,1.28,1.7,2,2.51C233.23,483.8,234.69,486.14,235.65,486.13Z"/><path class="cls-9" d="M237.86,484.29c17.68-.55,35.39-.22,53.07-.22.67,0-.32-.89-.31-.88-.42-.4-1.3-1.18-1.93-1.18H261.94c-8.64,0-17.26-.12-25.89.37C235.39,482.42,237.26,484.3,237.86,484.29Z"/><path class="cls-9" d="M235.84,486.15c17.7.06,35.4-.07,53.09.11a1.85,1.85,0,0,0-.76-1.09q-1.76-1.73-3.58-3.36t-3.68-3.25a1.83,1.83,0,0,0-1.16-.65,50.18,50.18,0,0,0-7.15-.28c-6.35.06-12.7-.09-19.05,0-5.79,0-11.56.18-17.34-.25-2.74-.21-5.48-.36-8.22-.53a1.85,1.85,0,0,0,.6,1.17c1,1.27,2,2.51,3,3.73s2.08,2.45,3.16,3.64A1.84,1.84,0,0,0,235.84,486.15Z"/><path class="cls-9" d="M234.74,483.32c17.71.13,35.41,0,53.12.17a2.27,2.27,0,0,0-.95-1.15c-1.4-1.21-2.81-2.38-4.25-3.53s-2.87-2.29-4.34-3.4a2.28,2.28,0,0,0-1.33-.68,56.4,56.4,0,0,0-7.24-.26c-6.35,0-12.71-.09-19.06,0-5.78.06-11.53.15-17.29-.35-2.78-.25-5.57-.39-8.35-.56a2.23,2.23,0,0,0,.8,1.23q1.85,2,3.78,3.92t3.88,3.81A2.27,2.27,0,0,0,234.74,483.32Z"/><path class="cls-9" d="M236.25,485.31c17.69.08,35.4-.09,53.09.12a1.67,1.67,0,0,0-.75-1q-1.69-1.5-3.47-2.93c-1.17-1-2.36-1.9-3.57-2.8a1.65,1.65,0,0,0-1.13-.53,51.92,51.92,0,0,0-7.17-.27c-6.35.06-12.7-.08-19.05,0-5.81.05-11.6.18-17.39-.22-2.76-.2-5.53-.35-8.29-.51a1.61,1.61,0,0,0,.59,1.06q1.45,1.68,3,3.28t3.11,3.17A1.58,1.58,0,0,0,236.25,485.31Z"/><path class="cls-9" d="M237.34,489.2c17.78-.34,35.57-.13,53.35-.13.7,0-1.23-2.88-1.91-2.88-17.7,0-35.46-.4-53.15.25C234.87,486.47,236.73,489.21,237.34,489.2Z"/><text class="cls-10" transform="translate(298.26 489.14)">NO white pants</text><text class="cls-11" transform="translate(230.04 524.66)">By wearing white pants while you are taking care of a <tspan x="40.14" y="18">child you have a </tspan><tspan class="cls-15" x="142.7" y="18">50% higher chance</tspan><tspan class="cls-26" x="305.87" y="18" xml:space="preserve"> of </tspan><tspan x="120.15" y="31.2">getting dirty compared to wearing </tspan><tspan x="140.85" y="44.4">colorful clothes. So be careful.</tspan></text><circle class="cls-19" cx="113" cy="541" r="94"/><path id="high_heel" data-name="high heel" class="cls-27" d="M42.07,269.73A20.05,20.05,0,0,0,37,283.25c0,8.4,5.7,20.45,5.89,21.08,1.88,6.23,2.52,12.76,3,19.24q2,25.13,1.88,50.36c1.62.71,4.32.57,6.08.58s2.62,0,3.2-1.71a6.5,6.5,0,0,0,.14-2.71c-1.34-14.86-2-29.74-3.34-44.59-.31-3.4-1.14-11.63,1.69-13.52,2-1.32,4.53-.81,6.76,0,5.52,2,13.52,8.71,16.9,13.52,6.24,8.88,6.48,21,10.45,31.08,2.76,7,6.1,14.52,12.65,18.31,4.88,2.82,10.78,3.11,16.42,3.11,20.76,0,41.4-2.94,62-5.87,4.05-.58,8.28-1.23,11.58-3.64a4.13,4.13,0,0,0,1.52-1.72c.87-2.22-1.6-4.24-3.72-5.33A238.1,238.1,0,0,0,159,348.13a31.08,31.08,0,0,0-8.62-2c-2.84-.12-5.66.49-8.51.53-7.32.09-15.09-4.19-20.32-9.32s-8.45-11.83-11.83-16.9c-8.07-12.1-13.82-23.72-20.68-35.35-5.47-9.28-11.21-18.85-20-25A38.91,38.91,0,0,0,61,255.57c-3.4-1.34-3.76-.56-6.52,1.86C50.22,261.2,45,264.79,42.07,269.73Z"/><rect id="no_signal" data-name="no signal" class="cls-6" x="24.4" y="309.42" width="187.3" height="4.77" transform="translate(183.84 -15.04) rotate(32.12)"/></g><path id="wipes-2" data-name="wipes" class="cls-28" d="M107.2,1223.54c-20.2-.44-29.56-.54-34.34-.54H59.18c-3.8,0-10.85-.81-11.4,0s.62,63,1.14,63.86S61.46,1288,61.46,1288H178.91q.72-15.51.73-32.35c0-11.55-.3-22.66-.81-33.29-14.54.49-27.4.8-38.22,1,0,0-10.85,1.09-44.94-.36a10.77,10.77,0,0,1-4.56-1.14,10.91,10.91,0,0,1-3.36-2.7c-5.94-6.82-10.33-19-10.33-19-3.24-9-2.94-11-2.28-12.55A10.13,10.13,0,0,1,82,1182c6.22-1.33,10,5.22,14.83,3.42,2.23-.83,3.25-3,4.56-5.7,3.72-7.75-.1-12.22,3.42-17.1a11.69,11.69,0,0,1,10.26-4.56,11.26,11.26,0,0,1,6.84,3.42c3.27,3.49,3.89,8.92,4.57,14.82.25,2.24.4,4.74,2.28,6.84a7.34,7.34,0,0,0,3.42,2.28c4.46,1.29,6.81-3.7,12.54-3.42.34,0,4.73.3,6.84,3.42a7.73,7.73,0,0,1,1.14,4.56c-.06,7-3.08,11.8-6.84,21.67-.12.33-1.39,3.67-3.42,8a20,20,0,0,1-1.14,2.28c-2.48,3.19-8.53,2-16,1.14-15.41-1.75-16.72.32-19.39-2.28-2.37-2.3-1.64-4.22-5.7-17.1-.91-2.89-1.72-5.26-2.28-6.84a2.19,2.19,0,0,1,1.14-2.28,2,2,0,0,1,1.68.48,5.14,5.14,0,0,1,1.76,3.22c1.16,6.24,7.16,12.55,8,13.4,1.89,2,2.77,2.25,3.42,2.28,2.35.12,4.27-2.59,5.77-4.7a24.94,24.94,0,0,0,3.35-6.7c1-3.21.64-4.71,2.23-6.41.27-.29,1.94-2.06,3.48-1.57,1.28.4,1.69,2.14,1.75,2.38.44,2-.78,3.74-1.18,4.61a167.06,167.06,0,0,0-7.53,19.31,2,2,0,0,1-.71,1.18,2,2,0,0,1-1,.23l-11.23.56a3.43,3.43,0,0,1-2.33-.44c-.58-.44-.14-1.51.06-2"/><g id="pants"><path id="pants6" class="cls-29" d="M82.67,469.31a20.78,20.78,0,0,0,9.48-.24,10.78,10.78,0,0,0,7-6"/><path id="pants5" class="cls-29" d="M112.31,458.93l1.47,20.54a14.28,14.28,0,0,0,2.47-10.34"/><path id="pants4" class="cls-29" d="M135.63,483.11a246,246,0,0,1,13.17,70.14c.54,13.57,0,27.62,5.34,40.12"/><path id="pants3" class="cls-29" d="M134.18,615.18a230.13,230.13,0,0,0,32.32-2.71"/><path id="pants2" class="cls-29" d="M58,612.65q16,0,31.92.77"/><path id="pants1" class="cls-29" d="M57.26,618.12c12.6,1.37,20.16-.14,32.24,2.88,6-43.71,12.58-87.92,20.88-131.25,1.33,11.76,18.82,96.34,19.92,104,1.51,10.58,3,16.62,3.37,26.44A115.33,115.33,0,0,0,168.08,618c0-6.05-26.21-148.54-29.81-166.53-16.33,5.17-33.73,4.08-50.28,1.82-2.45-.33-.6-5.79-3,1.52C79.13,472.44,59,594.12,57.26,618.12Z"/><rect id="no_signal-2" data-name="no signal" class="cls-6" x="17.4" y="542.42" width="187.3" height="4.77" transform="translate(306.64 24.33) rotate(32.12)"/></g><path id="bico3" d="M41.51,709.9c1.55-1.74,13.14-14.36,28.85-12.76a27.82,27.82,0,0,1,13.18,4.79c7.59,5.31,10.06,13,11,16.14A34,34,0,0,1,95,736.15a80.69,80.69,0,0,1,6,6.52A141.17,141.17,0,0,1,125.19,729a72.81,72.81,0,0,1,12.88-4.12c7.43-1.65,11-2.13,14.21-.22,4.23,2.52,6.08,9,2.72,12.61a12.75,12.75,0,0,1-5.35,2.93,12.22,12.22,0,0,1-3.37.37c-4.11-.09-23.87,4.7-42.43,21.77a73.06,73.06,0,0,0-12.32,13.92,67.62,67.62,0,0,0-10,21.55c-2.23,8.8-1.19,12.93-5.33,16.92-.48.46-5.4,5.08-10.2,3.4-3.92-1.37-5.23-6.05-5.44-6.8a14.24,14.24,0,0,1,.68-8.85c2.56-7,9.51-21.37,19.63-39.81A17.21,17.21,0,0,1,76.53,758a21.4,21.4,0,0,1-5.09,1.53,29.53,29.53,0,0,1-8.84,0c-.07.21-4.66-.66-8.17-2-9.28-3.65-13.88-12-15-14.09-5.77-10.78-3.34-21.36-2.66-24a17.57,17.57,0,0,1,4.77-9.53Z"/><path id="bico2" class="cls-30" d="M73,748.45a22.33,22.33,0,0,1,2.48-5.21,25.62,25.62,0,0,1,2.72-3.4,15.78,15.78,0,0,1,4.09-3.4,12.53,12.53,0,0,1,4.08-1.36,23.76,23.76,0,0,0,0-15.65c-1.18-.83-5.54-8.11-9.22-10.09-5.75-3.09-15.88-4.2-23.91,1.71-.55.4-9.91,7.54-9.05,18.58a21.45,21.45,0,0,0,6.12,12.93A22.33,22.33,0,0,0,58.51,748,23,23,0,0,0,66,749.36,24,24,0,0,0,73,748.45Z"/><path id="bico_1" data-name="bico 1" d="M115,758.21c8.37-.75,15.68,17.16,23.81,18.37,3.88.57,4.56-.74,11.63-.09A44.28,44.28,0,0,1,166,780.32a35.59,35.59,0,0,1,15,12.59c4.28,6.5,5.09,12.72,5.68,17.29a31.44,31.44,0,0,1,0,9.5c0,.25-.08.43-.09.49a25.76,25.76,0,0,1-4.22,9.45,49.48,49.48,0,0,1-10,11s0,0,0-.06c-.12-.18-5.43,3.5-10.41,5.44a33.83,33.83,0,0,1-15.31,1.86A34.56,34.56,0,0,1,134.51,845c-9-4-13.48-12.66-15.45-17.44a70,70,0,0,1-3.45-11.39c-1.72-8.15-.71-10.72-1.58-15.09-2-10.23-18.75-15.38-18.1-23.86.15-1.87,3.73-5.33,10.89-12.25C111.43,760.55,113.77,758.32,115,758.21Z"/><path id="canetinha4" class="cls-31" d="M57.77,1012.34c13.83-14.88,98.47-90.05,100-90.22,1.86-.19,20.36,16.51,27.47,24.21L97.45,1045c-3.2,3.6-6.85,7.44-11.64,7.94-4.58.49-7.41-2.22-13.86-1.23a32.46,32.46,0,0,0-6.45,1.77,28.44,28.44,0,0,0-4,2,75.73,75.73,0,0,0-8-8,4.75,4.75,0,0,1-2-3,4.08,4.08,0,0,1,.8-2.62c2.26-3.44,2-11.29,1.76-16.28-.29-5.55.67-12.07,5.51-14.8L95,1048.05"/><path id="canetinha3" d="M43.47,1054c.25,1.35,2.37,1.67,6.24,3.29a73.17,73.17,0,0,1,7.24,3.2c-.28-1.15,4.27-3.54,4.83-4.6-3.23-4.26-9.35-11.7-12.28-10.39-.72.32-.67.91-3,4S43.3,1053.07,43.47,1054Z"/><path id="canetinha2" d="M76.32,1029.78c15.34-9.31,72.05-70.73,81.8-81.44"/><path id="canetinha1" class="cls-31" d="M145.2,934.45a143.47,143.47,0,0,0,26.94,25.17"/></svg>