<?xml version="1.0" encoding="utf-8"?>
<!-- Generator: Adobe Illustrator 23.0.6, SVG Export Plug-In . SVG Version: 6.00 Build 0)  -->
<svg version="1.1" id="Layer_1" xmlns="http://www.w3.org/2000/svg" xmlns:xlink="http://www.w3.org/1999/xlink" x="0px" y="0px"
	 viewBox="0 0 231 228" style="enable-background:new 0 0 231 228;" xml:space="preserve">
<style type="text/css">
	.st0{fill:#EF0C0C;}
	.st1{fill:#F4EDED;}
	.st2{fill:#FFFFFF;stroke:#000000;stroke-miterlimit:10;}
</style>
<g id="icon_pacifier">
	<circle class="st0" cx="115.43" cy="116.4" r="102.5"/>
	<circle class="st1" cx="114.93" cy="115.9" r="94"/>
	<path id="bico3" d="M43.43,56.81c1.55-1.74,13.14-14.37,28.85-12.76c1.87,0.19,7.52,0.84,13.19,4.79
		c7.59,5.3,10.06,12.97,11.03,16.14c2.44,7.95,1.24,14.8,0.43,18.08c1.12,0.98,5.13,5.32,6.02,6.52
		c9.81-6.87,18.26-11.12,24.17-13.71c0.97-0.43,5.96-2.59,12.88-4.12c7.43-1.65,11.01-2.13,14.21-0.23
		c4.23,2.53,6.09,9.01,2.72,12.61c-1.71,1.84-4.76,2.79-5.35,2.93c-1.71,0.43-3.08,0.37-3.37,0.37c-4.11-0.09-23.86,4.7-42.43,21.77
		c-3.56,3.27-7.95,7.37-12.32,13.92c-2.4,3.59-7.31,10.95-10,21.55c-2.23,8.8-1.19,12.92-5.33,16.92c-0.48,0.47-5.4,5.08-10.21,3.4
		c-3.92-1.37-5.23-6.05-5.44-6.8c-1.08-3.85,0.11-7.29,0.68-8.84c2.56-6.96,9.51-21.37,19.63-39.81c-1.71-1.24-3.19-2.81-4.34-4.59
		c-1.36,0.6-3.08,1.19-5.09,1.53c-5.01,0.85-8.81-0.12-8.84,0c-0.06,0.21-4.66-0.66-8.16-2.04c-9.29-3.65-13.89-11.96-15.03-14.09
		c-5.77-10.78-3.35-21.36-2.66-24.01c0.19-1.25,0.6-2.97,1.5-4.86C41.2,59.31,42.48,57.78,43.43,56.81z"/>
	<path id="bico2" class="st2" d="M74.97,95.35c0.74-2.28,1.71-4.02,2.48-5.21c0.2-0.3,1.14-1.74,2.72-3.4
		c1.27-1.34,2.34-2.46,4.08-3.4c0.92-0.5,2.29-1.08,4.08-1.36c0.58-1.67,1.21-4.05,1.31-6.95c0.14-3.77-0.65-6.8-1.31-8.69
		c-1.18-0.82-5.54-8.11-9.22-10.09c-5.75-3.09-15.88-4.21-23.92,1.71c-0.54,0.4-9.91,7.54-9.05,18.58
		c0.54,6.94,4.82,11.56,6.12,12.93c3.4,3.57,7.11,5.05,8.16,5.44c0.66,0.25,3.54,1.28,7.48,1.36C70.88,96.33,73.3,95.83,74.97,95.35
		z"/>
	<path id="bico_1" d="M116.91,105.11c8.36-0.75,15.68,17.16,23.81,18.37c3.88,0.57,4.56-0.74,11.62-0.08
		c3.8,0.35,9.35,0.91,15.53,3.83c2.85,1.34,9.87,4.76,15.03,12.59c4.29,6.51,5.09,12.73,5.68,17.29c0.64,4.98,0.23,8.15-0.01,9.5
		c-0.04,0.25-0.08,0.43-0.09,0.49c-0.66,3.28-2.06,6.25-4.22,9.46c-4.44,6.59-9.95,11.01-10.02,10.94
		c-0.01-0.01,0.03-0.04,0.02-0.05c-0.11-0.19-5.43,3.5-10.41,5.44c-6.3,2.45-12.04,2.1-15.31,1.86c-3.17-0.23-7.33-0.67-12.11-2.79
		c-8.97-3.98-13.48-12.66-15.44-17.43c-1.03-2.57-2.42-6.48-3.46-11.4c-1.72-8.15-0.71-10.72-1.58-15.09
		c-2.05-10.23-18.75-15.38-18.09-23.86c0.14-1.87,3.72-5.33,10.89-12.25C113.36,107.45,115.69,105.22,116.91,105.11z"/>
</g>
</svg>
