<?xml version="1.0" encoding="utf-8"?>
<!-- Generator: Adobe Illustrator 23.0.6, SVG Export Plug-In . SVG Version: 6.00 Build 0)  -->
<svg version="1.1" id="Layer_1" xmlns="http://www.w3.org/2000/svg" xmlns:xlink="http://www.w3.org/1999/xlink" x="0px" y="0px"
	 viewBox="0 0 231 228" style="enable-background:new 0 0 231 228;" xml:space="preserve">
<style type="text/css">
	.st0{fill:#EF0C0C;}
	.st1{fill:#F4EDED;}
	.st2{fill:none;stroke:#000000;stroke-miterlimit:10;}
</style>
<g id="icon_markers">
	<circle class="st0" cx="115.43" cy="114.4" r="102.5"/>
	<circle class="st1" cx="114.93" cy="113.9" r="94"/>
	<path id="canetinha4" class="st2" d="M57.7,130.24c13.83-14.88,98.47-90.05,100.04-90.22c1.86-0.2,20.36,16.51,27.46,24.21
		c-22.91,25.75-81.47,91.54-87.83,98.69c-3.2,3.59-6.85,7.43-11.64,7.94c-4.59,0.49-7.41-2.22-13.86-1.24
		c-3.32,0.51-6.45,1.77-6.45,1.77c-1.64,0.66-2.98,1.39-4,2c-3.54-3.95-6.07-6.43-8-8c-0.55-0.44-1.84-1.47-2-3
		c-0.13-1.28,0.6-2.31,0.8-2.62c2.25-3.43,2.02-11.28,1.76-16.28c-0.29-5.55,0.67-12.07,5.51-14.8
		c11.81,12.42,23.62,24.84,35.43,37.25"/>
	<path id="canetinha3" d="M43.4,171.9c0.25,1.36,2.37,1.67,6.23,3.29c3.02,1.27,6.2,2.52,7.24,3.2c-0.28-1.15,4.27-3.55,4.83-4.6
		c-3.23-4.27-9.35-11.71-12.28-10.39c-0.72,0.32-0.67,0.91-3,4C44.07,170.52,43.23,170.97,43.4,171.9z"/>
	<path id="canetinha2" d="M76.24,147.69c15.34-9.32,72.06-70.74,81.8-81.44"/>
	<path id="canetinha1" class="st2" d="M145.12,52.35c3.64,4.4,8.04,9.19,13.3,14.05c4.75,4.38,9.37,8.06,13.64,11.12"/>
</g>
</svg>
