<?xml version="1.0" encoding="utf-8"?>
<!-- Generator: Adobe Illustrator 23.0.6, SVG Export Plug-In . SVG Version: 6.00 Build 0)  -->
<svg version="1.1" id="Layer_1" xmlns="http://www.w3.org/2000/svg" xmlns:xlink="http://www.w3.org/1999/xlink" x="0px" y="0px"
	 viewBox="0 0 231 228" style="enable-background:new 0 0 231 228;" xml:space="preserve">
<style type="text/css">
	.st0{fill:#EF0C0C;}
	.st1{fill:#F4EDED;}
	.st2{stroke:#FFFFFF;stroke-miterlimit:10;}
</style>
<g id="icon_wipes">
	<circle class="st0" cx="116.43" cy="115.4" r="102.5"/>
	<circle class="st1" cx="115.93" cy="114.9" r="94"/>
	<path id="wipes_1_" class="st2" d="M108.13,109.44c-20.2-0.44-29.56-0.54-34.34-0.54c0,0-10.97,0-13.68,0c-3.8,0-10.85-0.81-11.4,0
		c-0.54,0.8,0.62,62.98,1.14,63.86c0.53,0.89,12.54,1.14,12.54,1.14c0,0,106.43,0,117.45,0c0.48-10.34,0.74-21.13,0.73-32.35
		c-0.01-11.55-0.3-22.66-0.82-33.29c-14.54,0.49-27.4,0.8-38.22,1c0,0-10.85,1.09-44.94-0.36c-0.73-0.03-2.57-0.13-4.56-1.14
		c-1.6-0.81-2.64-1.88-3.36-2.7C82.73,98.24,78.35,86.1,78.35,86.1c-3.25-8.99-2.94-11-2.28-12.54c1.09-2.53,3.66-5.02,6.84-5.7
		c6.21-1.34,10.05,5.21,14.82,3.42c2.23-0.84,3.25-2.97,4.56-5.7c3.72-7.76-0.1-12.23,3.42-17.1c2.26-3.13,6.47-4.94,10.26-4.56
		c3.94,0.39,6.47,3.02,6.84,3.42c3.26,3.49,3.89,8.93,4.56,14.82c0.26,2.24,0.4,4.74,2.28,6.84c0.36,0.41,1.55,1.74,3.42,2.28
		c4.46,1.28,6.81-3.7,12.54-3.42c0.34,0.02,4.73,0.29,6.84,3.42c1.07,1.58,1.15,3.3,1.14,4.56c-0.06,7.01-3.08,11.79-6.84,21.67
		c-0.13,0.33-1.4,3.67-3.42,7.98c-0.64,1.37-0.97,2.06-1.14,2.28c-2.48,3.19-8.53,1.99-15.96,1.14c-15.4-1.75-16.71,0.32-19.39-2.28
		c-2.37-2.3-1.65-4.22-5.7-17.1c-0.91-2.89-1.72-5.26-2.28-6.84c-0.04-1.14,0.44-2.05,1.14-2.28c0.71-0.23,1.43,0.3,1.68,0.48
		c1.36,1,1.67,2.77,1.75,3.22c1.16,6.24,7.16,12.55,7.97,13.4c1.89,1.99,2.77,2.25,3.42,2.28c2.35,0.12,4.27-2.59,5.77-4.7
		c2.25-3.17,3.25-6.37,3.35-6.7c0.97-3.21,0.63-4.71,2.23-6.41c0.27-0.29,1.94-2.06,3.47-1.58c1.28,0.41,1.7,2.14,1.75,2.38
		c0.45,1.98-0.78,3.74-1.18,4.61c-2.9,6.27-5.42,12.73-7.53,19.31c-0.14,0.45-0.31,0.93-0.71,1.18c-0.29,0.19-0.66,0.21-1.01,0.23
		c-3.75,0.19-7.49,0.37-11.24,0.56c-0.81,0.04-1.69,0.06-2.33-0.44c-0.57-0.45-0.13-1.51,0.06-1.99"/>
</g>
</svg>
