<svg id="Layer_1" data-name="Layer 1" xmlns="http://www.w3.org/2000/svg" viewBox="0 0 205 205"><defs><style>.cls-1{fill:#ef0c0c;}.cls-2{fill:#f4eded;}.cls-3{fill:none;stroke:#544d4d;stroke-miterlimit:10;}</style></defs><title>icon pans</title><g id="icon_pans" data-name="icon pans"><circle class="cls-1" cx="102.5" cy="102.5" r="102.5"/><circle class="cls-2" cx="102" cy="102" r="94"/><g id="pants"><path id="pants6" class="cls-3" d="M85.62,40.25A20.92,20.92,0,0,0,95.1,40a10.78,10.78,0,0,0,7-6" transform="translate(-13.95 -9.94)"/><path id="pants5" class="cls-3" d="M115.25,29.86l1.48,20.55a14.29,14.29,0,0,0,2.47-10.34" transform="translate(-13.95 -9.94)"/><path id="pants4" class="cls-3" d="M138.58,54a246,246,0,0,1,13.17,70.15c.53,13.56,0,27.62,5.34,40.12" transform="translate(-13.95 -9.94)"/><path id="pants3" class="cls-3" d="M137.12,186.12a230.15,230.15,0,0,0,32.33-2.71" transform="translate(-13.95 -9.94)"/><path id="pants2" class="cls-3" d="M61,183.59q16,0,31.92.77" transform="translate(-13.95 -9.94)"/><path id="pants1" class="cls-3" d="M60.21,189.05c12.6,1.38,20.15-.14,32.24,2.89,6-43.71,12.58-87.92,20.87-131.26,1.34,11.77,18.83,96.35,19.93,104.06,1.51,10.58,3,16.62,3.37,26.44A115,115,0,0,0,171,188.91c0-6-26.21-148.54-29.81-166.53-16.33,5.18-33.73,4.09-50.28,1.83-2.45-.33-.6-5.8-3,1.51C82.08,43.38,62,165.05,60.21,189.05Z" transform="translate(-13.95 -9.94)"/></g><rect id="no_signal" data-name="no signal" class="cls-1" x="20.35" y="113.36" width="187.3" height="4.77" transform="translate(65.03 -52.83) rotate(32.12)"/></g></svg>