<?xml version="1.0" encoding="utf-8"?>
<!-- Generator: Adobe Illustrator 23.0.6, SVG Export Plug-In . SVG Version: 6.00 Build 0)  -->
<svg version="1.1" id="Layer_1" xmlns="http://www.w3.org/2000/svg" xmlns:xlink="http://www.w3.org/1999/xlink" x="0px" y="0px"
	 viewBox="0 0 231 235" style="enable-background:new 0 0 231 235;" xml:space="preserve">
<style type="text/css">
	.st0{fill:#EF0C0C;}
	.st1{fill:#F4EDED;}
	.st2{stroke:#544D4D;stroke-miterlimit:10;}
</style>
<g id="icon_high_heels">
	<circle class="st0" cx="115.14" cy="118.21" r="102.5"/>
	<circle class="st1" cx="114.64" cy="117.71" r="94"/>
	<path id="high_heel" class="st2" d="M41.71,71.44c-0.4,0.67-5.07,5.07-5.07,13.52c0,8.4,5.7,20.45,5.89,21.08
		c1.88,6.23,2.52,12.76,3.05,19.24c1.36,16.75,1.99,33.56,1.89,50.36c1.61,0.71,4.31,0.57,6.08,0.58s2.62-0.04,3.2-1.71
		c0.3-0.86,0.22-1.8,0.14-2.71c-1.34-14.86-2-29.73-3.34-44.59c-0.31-3.4-1.14-11.63,1.69-13.52c1.98-1.32,4.53-0.81,6.76,0
		c5.52,2,13.52,8.71,16.9,13.52c6.24,8.89,6.48,20.97,10.45,31.08c2.76,7.05,6.1,14.52,12.65,18.31c4.88,2.82,10.78,3.11,16.42,3.11
		c20.76,0,41.4-2.94,61.95-5.87c4.05-0.58,8.28-1.23,11.59-3.64c0.63-0.46,1.23-1,1.51-1.72c0.88-2.22-1.59-4.24-3.72-5.33
		c-10.05-5.17-20.47-9.62-31.15-13.31c-2.8-0.97-5.66-1.89-8.62-2.01c-2.84-0.12-5.67,0.49-8.51,0.53
		c-7.32,0.09-15.09-4.19-20.32-9.32c-5.23-5.13-8.45-11.83-11.83-16.9c-8.06-12.1-13.82-23.72-20.68-35.35
		c-5.47-9.28-11.21-18.84-20.02-25.03c-2.44-1.71-5.17-3.38-7.95-4.48c-3.4-1.34-3.76-0.56-6.52,1.86
		C49.86,62.91,44.63,66.5,41.71,71.44z"/>
	
		<rect id="no_signal" x="24.04" y="111.13" transform="matrix(0.847 0.5316 -0.5316 0.847 78.3595 -45.1974)" class="st0" width="187.3" height="4.77"/>
</g>
</svg>
